<mxfile host="app.diagrams.net" agent="Mozilla/5.0 (Windows NT 10.0; Win64; x64) AppleWebKit/537.36 (KHTML, like Gecko) Chrome/140.0.0.0 Safari/537.36" version="28.2.1">
  <diagram name="Page-1" id="Ys81EdGHUa_o-L90eBma">
    <mxGraphModel dx="2108" dy="562" grid="1" gridSize="10" guides="1" tooltips="1" connect="1" arrows="1" fold="1" page="1" pageScale="1" pageWidth="827" pageHeight="1169" math="0" shadow="0">
      <root>
        <mxCell id="0" />
        <mxCell id="1" parent="0" />
        <mxCell id="8d_P0olq7DtAvuq-Sv6k-1" value="" style="shape=table;startSize=0;container=1;collapsible=0;childLayout=tableLayout;" vertex="1" parent="1">
          <mxGeometry x="-10" y="150" width="1250" height="540" as="geometry" />
        </mxCell>
        <mxCell id="8d_P0olq7DtAvuq-Sv6k-2" value="" style="shape=tableRow;horizontal=0;startSize=0;swimlaneHead=0;swimlaneBody=0;strokeColor=inherit;top=0;left=0;bottom=0;right=0;collapsible=0;dropTarget=0;fillColor=none;points=[[0,0.5],[1,0.5]];portConstraint=eastwest;" vertex="1" parent="8d_P0olq7DtAvuq-Sv6k-1">
          <mxGeometry width="1250" height="108" as="geometry" />
        </mxCell>
        <mxCell id="8d_P0olq7DtAvuq-Sv6k-23" value="Function&lt;span style=&quot;white-space: pre;&quot;&gt;&#x9;&lt;/span&gt;" style="shape=partialRectangle;html=1;whiteSpace=wrap;connectable=0;strokeColor=inherit;overflow=hidden;fillColor=none;top=0;left=0;bottom=0;right=0;pointerEvents=1;" vertex="1" parent="8d_P0olq7DtAvuq-Sv6k-2">
          <mxGeometry width="313" height="108" as="geometry">
            <mxRectangle width="313" height="108" as="alternateBounds" />
          </mxGeometry>
        </mxCell>
        <mxCell id="8d_P0olq7DtAvuq-Sv6k-3" value="Bank" style="shape=partialRectangle;html=1;whiteSpace=wrap;connectable=0;strokeColor=inherit;overflow=hidden;fillColor=none;top=0;left=0;bottom=0;right=0;pointerEvents=1;" vertex="1" parent="8d_P0olq7DtAvuq-Sv6k-2">
          <mxGeometry x="313" width="312" height="108" as="geometry">
            <mxRectangle width="312" height="108" as="alternateBounds" />
          </mxGeometry>
        </mxCell>
        <mxCell id="8d_P0olq7DtAvuq-Sv6k-4" value="Customer/Holder" style="shape=partialRectangle;html=1;whiteSpace=wrap;connectable=0;strokeColor=inherit;overflow=hidden;fillColor=none;top=0;left=0;bottom=0;right=0;pointerEvents=1;" vertex="1" parent="8d_P0olq7DtAvuq-Sv6k-2">
          <mxGeometry x="625" width="313" height="108" as="geometry">
            <mxRectangle width="313" height="108" as="alternateBounds" />
          </mxGeometry>
        </mxCell>
        <mxCell id="8d_P0olq7DtAvuq-Sv6k-5" value="Remark" style="shape=partialRectangle;html=1;whiteSpace=wrap;connectable=0;strokeColor=inherit;overflow=hidden;fillColor=none;top=0;left=0;bottom=0;right=0;pointerEvents=1;" vertex="1" parent="8d_P0olq7DtAvuq-Sv6k-2">
          <mxGeometry x="938" width="312" height="108" as="geometry">
            <mxRectangle width="312" height="108" as="alternateBounds" />
          </mxGeometry>
        </mxCell>
        <mxCell id="8d_P0olq7DtAvuq-Sv6k-6" value="" style="shape=tableRow;horizontal=0;startSize=0;swimlaneHead=0;swimlaneBody=0;strokeColor=inherit;top=0;left=0;bottom=0;right=0;collapsible=0;dropTarget=0;fillColor=none;points=[[0,0.5],[1,0.5]];portConstraint=eastwest;" vertex="1" parent="8d_P0olq7DtAvuq-Sv6k-1">
          <mxGeometry y="108" width="1250" height="108" as="geometry" />
        </mxCell>
        <mxCell id="8d_P0olq7DtAvuq-Sv6k-24" value="Create" style="shape=partialRectangle;html=1;whiteSpace=wrap;connectable=0;strokeColor=inherit;overflow=hidden;fillColor=none;top=0;left=0;bottom=0;right=0;pointerEvents=1;" vertex="1" parent="8d_P0olq7DtAvuq-Sv6k-6">
          <mxGeometry width="313" height="108" as="geometry">
            <mxRectangle width="313" height="108" as="alternateBounds" />
          </mxGeometry>
        </mxCell>
        <mxCell id="8d_P0olq7DtAvuq-Sv6k-7" value="" style="shape=partialRectangle;html=1;whiteSpace=wrap;connectable=0;strokeColor=inherit;overflow=hidden;fillColor=none;top=0;left=0;bottom=0;right=0;pointerEvents=1;" vertex="1" parent="8d_P0olq7DtAvuq-Sv6k-6">
          <mxGeometry x="313" width="312" height="108" as="geometry">
            <mxRectangle width="312" height="108" as="alternateBounds" />
          </mxGeometry>
        </mxCell>
        <mxCell id="8d_P0olq7DtAvuq-Sv6k-8" value="" style="shape=partialRectangle;html=1;whiteSpace=wrap;connectable=0;strokeColor=inherit;overflow=hidden;fillColor=none;top=0;left=0;bottom=0;right=0;pointerEvents=1;" vertex="1" parent="8d_P0olq7DtAvuq-Sv6k-6">
          <mxGeometry x="625" width="313" height="108" as="geometry">
            <mxRectangle width="313" height="108" as="alternateBounds" />
          </mxGeometry>
        </mxCell>
        <object label="Customer can enroll for TokenisedDespoit Journey and hence Bank should create this under Customer OnBoarding journey for this journey. Even though customer maybe existing customer but they will be new to this journey" TokenisedDeposit="" id="8d_P0olq7DtAvuq-Sv6k-9">
          <mxCell style="shape=partialRectangle;html=1;whiteSpace=wrap;connectable=0;strokeColor=inherit;overflow=hidden;fillColor=none;top=0;left=0;bottom=0;right=0;pointerEvents=1;" vertex="1" parent="8d_P0olq7DtAvuq-Sv6k-6">
            <mxGeometry x="938" width="312" height="108" as="geometry">
              <mxRectangle width="312" height="108" as="alternateBounds" />
            </mxGeometry>
          </mxCell>
        </object>
        <mxCell id="8d_P0olq7DtAvuq-Sv6k-10" value="" style="shape=tableRow;horizontal=0;startSize=0;swimlaneHead=0;swimlaneBody=0;strokeColor=inherit;top=0;left=0;bottom=0;right=0;collapsible=0;dropTarget=0;fillColor=none;points=[[0,0.5],[1,0.5]];portConstraint=eastwest;" vertex="1" parent="8d_P0olq7DtAvuq-Sv6k-1">
          <mxGeometry y="216" width="1250" height="108" as="geometry" />
        </mxCell>
        <mxCell id="8d_P0olq7DtAvuq-Sv6k-25" value="Set_KYC" style="shape=partialRectangle;html=1;whiteSpace=wrap;connectable=0;strokeColor=inherit;overflow=hidden;fillColor=none;top=0;left=0;bottom=0;right=0;pointerEvents=1;" vertex="1" parent="8d_P0olq7DtAvuq-Sv6k-10">
          <mxGeometry width="313" height="108" as="geometry">
            <mxRectangle width="313" height="108" as="alternateBounds" />
          </mxGeometry>
        </mxCell>
        <mxCell id="8d_P0olq7DtAvuq-Sv6k-11" value="" style="shape=partialRectangle;html=1;whiteSpace=wrap;connectable=0;strokeColor=inherit;overflow=hidden;fillColor=none;top=0;left=0;bottom=0;right=0;pointerEvents=1;" vertex="1" parent="8d_P0olq7DtAvuq-Sv6k-10">
          <mxGeometry x="313" width="312" height="108" as="geometry">
            <mxRectangle width="312" height="108" as="alternateBounds" />
          </mxGeometry>
        </mxCell>
        <mxCell id="8d_P0olq7DtAvuq-Sv6k-12" value="" style="shape=partialRectangle;html=1;whiteSpace=wrap;connectable=0;strokeColor=inherit;overflow=hidden;fillColor=none;top=0;left=0;bottom=0;right=0;pointerEvents=1;" vertex="1" parent="8d_P0olq7DtAvuq-Sv6k-10">
          <mxGeometry x="625" width="313" height="108" as="geometry">
            <mxRectangle width="313" height="108" as="alternateBounds" />
          </mxGeometry>
        </mxCell>
        <mxCell id="8d_P0olq7DtAvuq-Sv6k-13" value="" style="shape=partialRectangle;html=1;whiteSpace=wrap;connectable=0;strokeColor=inherit;overflow=hidden;fillColor=none;top=0;left=0;bottom=0;right=0;pointerEvents=1;" vertex="1" parent="8d_P0olq7DtAvuq-Sv6k-10">
          <mxGeometry x="938" width="312" height="108" as="geometry">
            <mxRectangle width="312" height="108" as="alternateBounds" />
          </mxGeometry>
        </mxCell>
        <mxCell id="8d_P0olq7DtAvuq-Sv6k-14" value="" style="shape=tableRow;horizontal=0;startSize=0;swimlaneHead=0;swimlaneBody=0;strokeColor=inherit;top=0;left=0;bottom=0;right=0;collapsible=0;dropTarget=0;fillColor=none;points=[[0,0.5],[1,0.5]];portConstraint=eastwest;" vertex="1" parent="8d_P0olq7DtAvuq-Sv6k-1">
          <mxGeometry y="324" width="1250" height="108" as="geometry" />
        </mxCell>
        <mxCell id="8d_P0olq7DtAvuq-Sv6k-26" value="Set_Limit" style="shape=partialRectangle;html=1;whiteSpace=wrap;connectable=0;strokeColor=inherit;overflow=hidden;fillColor=none;top=0;left=0;bottom=0;right=0;pointerEvents=1;" vertex="1" parent="8d_P0olq7DtAvuq-Sv6k-14">
          <mxGeometry width="313" height="108" as="geometry">
            <mxRectangle width="313" height="108" as="alternateBounds" />
          </mxGeometry>
        </mxCell>
        <mxCell id="8d_P0olq7DtAvuq-Sv6k-15" value="" style="shape=partialRectangle;html=1;whiteSpace=wrap;connectable=0;strokeColor=inherit;overflow=hidden;fillColor=none;top=0;left=0;bottom=0;right=0;pointerEvents=1;" vertex="1" parent="8d_P0olq7DtAvuq-Sv6k-14">
          <mxGeometry x="313" width="312" height="108" as="geometry">
            <mxRectangle width="312" height="108" as="alternateBounds" />
          </mxGeometry>
        </mxCell>
        <mxCell id="8d_P0olq7DtAvuq-Sv6k-16" value="" style="shape=partialRectangle;html=1;whiteSpace=wrap;connectable=0;strokeColor=inherit;overflow=hidden;fillColor=none;top=0;left=0;bottom=0;right=0;pointerEvents=1;" vertex="1" parent="8d_P0olq7DtAvuq-Sv6k-14">
          <mxGeometry x="625" width="313" height="108" as="geometry">
            <mxRectangle width="313" height="108" as="alternateBounds" />
          </mxGeometry>
        </mxCell>
        <mxCell id="8d_P0olq7DtAvuq-Sv6k-17" value="" style="shape=partialRectangle;html=1;whiteSpace=wrap;connectable=0;strokeColor=inherit;overflow=hidden;fillColor=none;top=0;left=0;bottom=0;right=0;pointerEvents=1;" vertex="1" parent="8d_P0olq7DtAvuq-Sv6k-14">
          <mxGeometry x="938" width="312" height="108" as="geometry">
            <mxRectangle width="312" height="108" as="alternateBounds" />
          </mxGeometry>
        </mxCell>
        <mxCell id="8d_P0olq7DtAvuq-Sv6k-18" value="" style="shape=tableRow;horizontal=0;startSize=0;swimlaneHead=0;swimlaneBody=0;strokeColor=inherit;top=0;left=0;bottom=0;right=0;collapsible=0;dropTarget=0;fillColor=none;points=[[0,0.5],[1,0.5]];portConstraint=eastwest;" vertex="1" parent="8d_P0olq7DtAvuq-Sv6k-1">
          <mxGeometry y="432" width="1250" height="108" as="geometry" />
        </mxCell>
        <mxCell id="8d_P0olq7DtAvuq-Sv6k-27" value="Set_Freeze" style="shape=partialRectangle;html=1;whiteSpace=wrap;connectable=0;strokeColor=inherit;overflow=hidden;fillColor=none;top=0;left=0;bottom=0;right=0;pointerEvents=1;" vertex="1" parent="8d_P0olq7DtAvuq-Sv6k-18">
          <mxGeometry width="313" height="108" as="geometry">
            <mxRectangle width="313" height="108" as="alternateBounds" />
          </mxGeometry>
        </mxCell>
        <mxCell id="8d_P0olq7DtAvuq-Sv6k-19" value="" style="shape=partialRectangle;html=1;whiteSpace=wrap;connectable=0;strokeColor=inherit;overflow=hidden;fillColor=none;top=0;left=0;bottom=0;right=0;pointerEvents=1;" vertex="1" parent="8d_P0olq7DtAvuq-Sv6k-18">
          <mxGeometry x="313" width="312" height="108" as="geometry">
            <mxRectangle width="312" height="108" as="alternateBounds" />
          </mxGeometry>
        </mxCell>
        <mxCell id="8d_P0olq7DtAvuq-Sv6k-20" value="" style="shape=partialRectangle;html=1;whiteSpace=wrap;connectable=0;strokeColor=inherit;overflow=hidden;fillColor=none;top=0;left=0;bottom=0;right=0;pointerEvents=1;" vertex="1" parent="8d_P0olq7DtAvuq-Sv6k-18">
          <mxGeometry x="625" width="313" height="108" as="geometry">
            <mxRectangle width="313" height="108" as="alternateBounds" />
          </mxGeometry>
        </mxCell>
        <mxCell id="8d_P0olq7DtAvuq-Sv6k-21" value="" style="shape=partialRectangle;html=1;whiteSpace=wrap;connectable=0;strokeColor=inherit;overflow=hidden;fillColor=none;top=0;left=0;bottom=0;right=0;pointerEvents=1;" vertex="1" parent="8d_P0olq7DtAvuq-Sv6k-18">
          <mxGeometry x="938" width="312" height="108" as="geometry">
            <mxRectangle width="312" height="108" as="alternateBounds" />
          </mxGeometry>
        </mxCell>
      </root>
    </mxGraphModel>
  </diagram>
</mxfile>
